G04*
G04 #@! TF.GenerationSoftware,Altium Limited,Altium Designer,25.0.2 (28)*
G04*
G04 Layer_Color=8388736*
%FSLAX25Y25*%
%MOIN*%
G70*
G04*
G04 #@! TF.SameCoordinates,3DC6336E-5C34-4527-9770-C00B4075D205*
G04*
G04*
G04 #@! TF.FilePolarity,Negative*
G04*
G01*
G75*
%ADD15R,0.04350X0.05531*%
%ADD16R,0.06712X0.03562*%
%ADD17C,0.06318*%
D15*
X54500Y27000D02*
D03*
X60405D02*
D03*
X102811Y24000D02*
D03*
X96905D02*
D03*
Y15500D02*
D03*
X102811D02*
D03*
X61905Y37500D02*
D03*
X56000D02*
D03*
X94406Y37000D02*
D03*
X88500D02*
D03*
X60405Y19500D02*
D03*
X54500D02*
D03*
X94406Y44500D02*
D03*
X88500D02*
D03*
D16*
X89354Y31000D02*
D03*
Y26000D02*
D03*
Y21000D02*
D03*
Y16000D02*
D03*
X69906Y31000D02*
D03*
Y26000D02*
D03*
Y21000D02*
D03*
Y16000D02*
D03*
D17*
X14500Y12000D02*
D03*
Y22000D02*
D03*
Y32000D02*
D03*
Y42000D02*
D03*
Y52000D02*
D03*
X135500Y12000D02*
D03*
Y22000D02*
D03*
Y32000D02*
D03*
Y42000D02*
D03*
Y52000D02*
D03*
M02*
