G04*
G04 #@! TF.GenerationSoftware,Altium Limited,Altium Designer,25.0.2 (28)*
G04*
G04 Layer_Color=65535*
%FSLAX25Y25*%
%MOIN*%
G70*
G04*
G04 #@! TF.SameCoordinates,3DC6336E-5C34-4527-9770-C00B4075D205*
G04*
G04*
G04 #@! TF.FilePolarity,Positive*
G04*
G01*
G75*
%ADD10C,0.00600*%
%ADD11R,0.02165X0.01575*%
%ADD12R,0.01300X0.01400*%
D10*
X45168Y28501D02*
Y32499D01*
X47167D01*
X47834Y31833D01*
Y30500D01*
X47167Y29834D01*
X45168D01*
X46501D02*
X47834Y28501D01*
X51832D02*
X49167D01*
X51832Y31166D01*
Y31833D01*
X51166Y32499D01*
X49833D01*
X49167Y31833D01*
X65740Y39999D02*
Y36667D01*
X66406Y36001D01*
X67739D01*
X68405Y36667D01*
Y39999D01*
X69738Y36001D02*
X71071D01*
X70405D01*
Y39999D01*
X69738Y39333D01*
X105668Y24501D02*
Y28499D01*
X107667D01*
X108334Y27833D01*
Y26500D01*
X107667Y25834D01*
X105668D01*
X107001D02*
X108334Y24501D01*
X112332Y28499D02*
X109667D01*
Y26500D01*
X110999Y27166D01*
X111666D01*
X112332Y26500D01*
Y25167D01*
X111666Y24501D01*
X110333D01*
X109667Y25167D01*
X106168Y15501D02*
Y19499D01*
X108167D01*
X108834Y18833D01*
Y17500D01*
X108167Y16834D01*
X106168D01*
X107501D02*
X108834Y15501D01*
X112166D02*
Y19499D01*
X110167Y17500D01*
X112832D01*
X46168Y36501D02*
Y40499D01*
X48167D01*
X48834Y39833D01*
Y38500D01*
X48167Y37834D01*
X46168D01*
X47501D02*
X48834Y36501D01*
X50166Y39833D02*
X50833Y40499D01*
X52166D01*
X52832Y39833D01*
Y39166D01*
X52166Y38500D01*
X51499D01*
X52166D01*
X52832Y37834D01*
Y37167D01*
X52166Y36501D01*
X50833D01*
X50166Y37167D01*
X45334Y18501D02*
Y22499D01*
X47334D01*
X48000Y21833D01*
Y20500D01*
X47334Y19834D01*
X45334D01*
X46667D02*
X48000Y18501D01*
X49333D02*
X50666D01*
X49999D01*
Y22499D01*
X49333Y21833D01*
X134834Y62499D02*
X133501D01*
X134167D01*
Y59167D01*
X133501Y58501D01*
X132834D01*
X132168Y59167D01*
X138832Y58501D02*
X136167D01*
X138832Y61166D01*
Y61833D01*
X138166Y62499D01*
X136833D01*
X136167Y61833D01*
X14000Y62499D02*
X12667D01*
X13333D01*
Y59167D01*
X12667Y58501D01*
X12001D01*
X11334Y59167D01*
X15333Y58501D02*
X16666D01*
X15999D01*
Y62499D01*
X15333Y61833D01*
X100239Y45833D02*
X99573Y46499D01*
X98240D01*
X97573Y45833D01*
Y43167D01*
X98240Y42501D01*
X99573D01*
X100239Y43167D01*
X104238Y42501D02*
X101572D01*
X104238Y45166D01*
Y45833D01*
X103571Y46499D01*
X102238D01*
X101572Y45833D01*
X100906Y37833D02*
X100239Y38499D01*
X98906D01*
X98240Y37833D01*
Y35167D01*
X98906Y34501D01*
X100239D01*
X100906Y35167D01*
X102238Y34501D02*
X103571D01*
X102905D01*
Y38499D01*
X102238Y37833D01*
D11*
X7531Y52807D02*
D03*
X128532D02*
D03*
D12*
X64253Y31100D02*
D03*
M02*
