G04*
G04 #@! TF.GenerationSoftware,Altium Limited,Altium Designer,24.10.1 (45)*
G04*
G04 Layer_Physical_Order=1*
G04 Layer_Color=255*
%FSLAX25Y25*%
%MOIN*%
G70*
G04*
G04 #@! TF.SameCoordinates,E5876448-55ED-4AE9-9455-0B125572086D*
G04*
G04*
G04 #@! TF.FilePolarity,Positive*
G04*
G01*
G75*
%ADD18R,0.04331X0.03150*%
%ADD19R,0.03150X0.04331*%
%ADD20R,0.02756X0.05118*%
%ADD21C,0.02500*%
%ADD22O,0.05118X0.05236*%
%ADD23C,0.05118*%
%ADD24O,0.05236X0.05118*%
G36*
X43500Y73099D02*
X42100D01*
Y69540D01*
X41100D01*
Y73099D01*
X39600D01*
Y73100D01*
X35300D01*
Y80490D01*
X35983Y80750D01*
X36200Y80767D01*
X36815Y80152D01*
X37626Y79684D01*
X38500Y79449D01*
Y83000D01*
Y86551D01*
X37626Y86317D01*
X36815Y85848D01*
X36200Y85233D01*
X35983Y85250D01*
X35300Y85510D01*
Y88000D01*
X43500D01*
Y73099D01*
D02*
G37*
G36*
X34200Y72300D02*
X34222D01*
Y70040D01*
X36600D01*
Y69540D01*
X37100D01*
Y65981D01*
X38600D01*
Y63300D01*
X24000D01*
Y88000D01*
X34200D01*
Y72300D01*
D02*
G37*
G36*
X52600Y85656D02*
X52311Y85475D01*
X51700Y85333D01*
X51185Y85848D01*
X50374Y86317D01*
X49500Y86551D01*
Y83000D01*
Y79449D01*
X50374Y79684D01*
X51185Y80152D01*
X51700Y80667D01*
X52311Y80525D01*
X52600Y80344D01*
Y73100D01*
X48700D01*
Y73099D01*
X47100D01*
Y69540D01*
X46100D01*
Y73099D01*
X44520D01*
Y88000D01*
X52600D01*
Y85656D01*
D02*
G37*
G36*
X64000Y63900D02*
X49700D01*
Y65981D01*
X51100D01*
Y69540D01*
X51600D01*
Y70040D01*
X53978D01*
Y72700D01*
X54000D01*
Y88000D01*
X64000D01*
Y63900D01*
D02*
G37*
%LPC*%
G36*
X39500Y86551D02*
Y83500D01*
X42551D01*
X42316Y84374D01*
X41848Y85185D01*
X41185Y85848D01*
X40374Y86317D01*
X39500Y86551D01*
D02*
G37*
G36*
X42551Y82500D02*
X39500D01*
Y79449D01*
X40374Y79684D01*
X41185Y80152D01*
X41848Y80815D01*
X42316Y81626D01*
X42551Y82500D01*
D02*
G37*
G36*
X29500Y86583D02*
Y83500D01*
X32532D01*
X32467Y83988D01*
X32109Y84854D01*
X31538Y85597D01*
X30795Y86168D01*
X29929Y86527D01*
X29500Y86583D01*
D02*
G37*
G36*
X28500D02*
X28071Y86527D01*
X27205Y86168D01*
X26462Y85597D01*
X25891Y84854D01*
X25533Y83988D01*
X25468Y83500D01*
X28500D01*
Y86583D01*
D02*
G37*
G36*
X32532Y82500D02*
X29500D01*
Y79417D01*
X29929Y79474D01*
X30795Y79832D01*
X31538Y80403D01*
X32109Y81146D01*
X32467Y82012D01*
X32532Y82500D01*
D02*
G37*
G36*
X28500D02*
X25468D01*
X25533Y82012D01*
X25891Y81146D01*
X26462Y80403D01*
X27205Y79832D01*
X28071Y79474D01*
X28500Y79417D01*
Y82500D01*
D02*
G37*
G36*
X36100Y69040D02*
X34222D01*
Y65981D01*
X36100D01*
Y69040D01*
D02*
G37*
G36*
X48500Y86551D02*
X47626Y86317D01*
X46815Y85848D01*
X46152Y85185D01*
X45684Y84374D01*
X45449Y83500D01*
X48500D01*
Y86551D01*
D02*
G37*
G36*
Y82500D02*
X45449D01*
X45684Y81626D01*
X46152Y80815D01*
X46815Y80152D01*
X47626Y79684D01*
X48500Y79449D01*
Y82500D01*
D02*
G37*
G36*
X59500Y86551D02*
Y83500D01*
X62551D01*
X62317Y84374D01*
X61848Y85185D01*
X61185Y85848D01*
X60374Y86317D01*
X59500Y86551D01*
D02*
G37*
G36*
X58500D02*
X57626Y86317D01*
X56815Y85848D01*
X56152Y85185D01*
X55683Y84374D01*
X55449Y83500D01*
X58500D01*
Y86551D01*
D02*
G37*
G36*
X62551Y82500D02*
X59500D01*
Y79449D01*
X60374Y79684D01*
X61185Y80152D01*
X61848Y80815D01*
X62317Y81626D01*
X62551Y82500D01*
D02*
G37*
G36*
X58500D02*
X55449D01*
X55683Y81626D01*
X56152Y80815D01*
X56815Y80152D01*
X57626Y79684D01*
X58500Y79449D01*
Y82500D01*
D02*
G37*
G36*
X53978Y69040D02*
X52100D01*
Y65981D01*
X53978D01*
Y69040D01*
D02*
G37*
%LPD*%
D18*
X41600Y25800D02*
D03*
Y31705D02*
D03*
X51600Y25800D02*
D03*
Y31705D02*
D03*
D19*
X29100Y33300D02*
D03*
X23194D02*
D03*
X29100Y23300D02*
D03*
X23194D02*
D03*
D20*
X51600Y69540D02*
D03*
X46600D02*
D03*
X41600D02*
D03*
X36600D02*
D03*
X51600Y40800D02*
D03*
X46600D02*
D03*
X41600D02*
D03*
X36600D02*
D03*
D21*
X58592Y3432D02*
X61409Y6249D01*
X46600Y8300D02*
X51468Y3432D01*
X26600Y8300D02*
X36600D01*
X51468Y3432D02*
X58592D01*
X24608Y3491D02*
X41791D01*
X46600Y8300D01*
X23194Y33300D02*
X23519Y32975D01*
Y29897D02*
X27019Y26397D01*
X23519Y29897D02*
Y32975D01*
X27019Y25971D02*
Y26397D01*
Y25971D02*
X29100Y23890D01*
X41600Y25800D02*
X51600D01*
X41600Y31705D02*
Y40800D01*
X29100Y33891D02*
X29425Y34215D01*
X31196D02*
X36600Y39619D01*
X29425Y34215D02*
X31196D01*
X23194Y33300D02*
Y33891D01*
X36600Y39619D02*
Y40800D01*
X29100Y23300D02*
Y23890D01*
X41009Y25800D02*
X41600D01*
X36600Y21391D02*
X41009Y25800D01*
X36600Y21391D02*
Y25210D01*
X29100Y32709D02*
Y33300D01*
Y32709D02*
X36600Y25210D01*
X29100Y33300D02*
Y33891D01*
X56600Y8300D02*
Y27722D01*
X51600Y31705D02*
Y40800D01*
X54697Y29625D02*
X56600Y27722D01*
X54271Y29625D02*
X54697D01*
X52191Y31705D02*
X54271Y29625D01*
X51600Y31705D02*
X52191D01*
X21791Y6308D02*
X24608Y3491D01*
X23194Y15048D02*
Y23300D01*
X21791Y13645D02*
X23194Y15048D01*
X21791Y6308D02*
Y13645D01*
X18785Y38300D02*
X23194Y33891D01*
X9100Y38300D02*
X18785D01*
X36600Y8300D02*
Y21391D01*
X46600Y41981D02*
X47972Y43353D01*
X53910Y45609D02*
X61409Y38110D01*
X47972Y43353D02*
Y44291D01*
X49290Y45609D01*
X53910D01*
X61409Y6249D02*
Y38110D01*
X46600Y40800D02*
Y41981D01*
D22*
X56600Y8300D02*
D03*
X29000Y83000D02*
D03*
D23*
X46600Y8300D02*
D03*
X36600D02*
D03*
X26600D02*
D03*
X39000Y83000D02*
D03*
X49000D02*
D03*
X59000D02*
D03*
X9100Y28300D02*
D03*
Y18300D02*
D03*
Y8300D02*
D03*
D24*
Y38300D02*
D03*
M02*
